<svg id="all" xmlns="http://www.w3.org/2000/svg" width="26.955" height="26.955" viewBox="0 0 26.955 26.955">
  <path id="Path_3" data-name="Path 3" d="M21.216,3.246a4.5,4.5,0,0,1,4.493,4.493V21.216a4.5,4.5,0,0,1-4.493,4.493H7.739a4.5,4.5,0,0,1-4.493-4.493V7.739A4.5,4.5,0,0,1,7.739,3.246Zm0-2.246H7.739A6.738,6.738,0,0,0,1,7.739V21.216a6.738,6.738,0,0,0,6.739,6.739H21.216a6.738,6.738,0,0,0,6.739-6.739V7.739A6.738,6.738,0,0,0,21.216,1Z" transform="translate(-1 -1)" fill="#595866"/>
  <path id="Path_4" data-name="Path 4" d="M18.945,12.413H12.206a1.123,1.123,0,0,1,0-2.246h6.739a1.123,1.123,0,1,1,0,2.246Z" transform="translate(1.271 1.065)" fill="#595866"/>
  <path id="Path_5" data-name="Path 5" d="M18.945,7.83H12.206a1.123,1.123,0,0,1,0-2.246h6.739a1.123,1.123,0,1,1,0,2.246Z" transform="translate(1.271 0.032)" fill="#595866"/>
  <path id="Path_6" data-name="Path 6" d="M18.945,17H12.206a1.123,1.123,0,0,1,0-2.246h6.739a1.123,1.123,0,1,1,0,2.246Z" transform="translate(1.271 2.097)" fill="#595866"/>
  <path id="Path_7" data-name="Path 7" d="M9.663,2.123V26.832a1.123,1.123,0,1,1-2.246,0V2.123a1.123,1.123,0,1,1,2.246,0Z" transform="translate(0.445 -1)" fill="#595866"/>
</svg>
