<svg xmlns="http://www.w3.org/2000/svg" width="28.516" height="25.724" viewBox="0 0 28.516 25.724">
  <path id="archive" d="M13.423,17.291h5.716a1.429,1.429,0,1,0,0-2.858H13.423a1.429,1.429,0,0,0,0,2.858ZM26.285,3H6.277a4.287,4.287,0,0,0-1.429,8.317V24.437a4.287,4.287,0,0,0,4.287,4.287H23.427a4.287,4.287,0,0,0,4.287-4.287V11.318A4.287,4.287,0,0,0,26.285,3ZM24.856,24.437a1.429,1.429,0,0,1-1.429,1.429H9.136a1.429,1.429,0,0,1-1.429-1.429V11.575H24.856Zm1.429-15.72H6.277a1.429,1.429,0,1,1,0-2.858H26.285a1.429,1.429,0,1,1,0,2.858Z" transform="translate(-2.023 -3)" fill="#595866"/>
</svg>
