<svg xmlns="http://www.w3.org/2000/svg" xmlns:xlink="http://www.w3.org/1999/xlink" width="28" height="26" viewBox="0 0 28 26">
  <defs>
    <clipPath id="clip-path">
      <rect id="Rectangle_37" data-name="Rectangle 37" width="28" height="26" transform="translate(-0.421 0.357)" fill="#fff"/>
    </clipPath>
  </defs>
  <g id="drafts" transform="translate(0.421 -0.357)" clip-path="url(#clip-path)">
    <path id="Path_35" data-name="Path 35" d="M18.394.762H7.078A6.288,6.288,0,0,0,.8,7.041v7.63a6.279,6.279,0,0,0,5.22,6.172l-.042,4a1.049,1.049,0,0,0,1.7.835l6.019-4.731h5.889a6.288,6.288,0,0,0,6.278-6.279V8.289a5.56,5.56,0,0,1-2.1.558v5.824a4.15,4.15,0,0,1-4.182,4.182H13.329a1.049,1.049,0,0,0-.648.224L8.1,22.68l.029-2.769a1.049,1.049,0,0,0-1.048-1.059A4.15,4.15,0,0,1,2.9,14.671V7.041A4.15,4.15,0,0,1,7.078,2.86h10.74A5.557,5.557,0,0,1,18.394.762Z" transform="translate(0.468 0.272)" fill="#595866" fill-rule="evenodd"/>
    <ellipse id="Ellipse_3" data-name="Ellipse 3" cx="2.517" cy="2.517" rx="2.517" ry="2.517" transform="translate(21.347 1.021)" fill="none" stroke="#595866" stroke-width="1.5"/>
  </g>
</svg>
