<svg id="sent" xmlns="http://www.w3.org/2000/svg" width="24.505" height="24.505" viewBox="0 0 24.505 24.505">
  <path id="Path_25" data-name="Path 25" d="M12.9,15.8A4.9,4.9,0,1,0,8,10.9,4.9,4.9,0,0,0,12.9,15.8Zm0-7.351a2.45,2.45,0,1,1-2.45,2.45A2.45,2.45,0,0,1,12.9,8.45Z" transform="translate(-0.649 -1.099)" fill="#595866"/>
  <path id="Path_26" data-name="Path 26" d="M4.45,26.5A2.45,2.45,0,0,1,2,24.054V4.45A2.45,2.45,0,0,1,4.45,2h19.6A2.45,2.45,0,0,1,26.5,4.45v19.6a2.45,2.45,0,0,1-2.45,2.45Zm0-22.054v19.6H8.126a6.126,6.126,0,1,1,12.252,0h3.676V4.45Zm13.478,19.6a3.676,3.676,0,1,0-7.351,0Z" transform="translate(-2 -2)" fill="#595866"/>
</svg>
