<svg id="statistic" xmlns="http://www.w3.org/2000/svg" width="24.187" height="24.187" viewBox="0 0 24.187 24.187">
  <path id="Path_29" data-name="Path 29" d="M25.914,23.641H5.546V3.273A1.273,1.273,0,1,0,3,3.273V24.914a1.273,1.273,0,0,0,1.273,1.273H25.914a1.273,1.273,0,0,0,0-2.546Z" transform="translate(-3 -2)" fill="#595866"/>
  <path id="Path_30" data-name="Path 30" d="M7,11.273v6.365a1.273,1.273,0,0,0,2.546,0V11.273a1.273,1.273,0,0,0-2.546,0Z" transform="translate(-1.908 0.184)" fill="#595866"/>
  <path id="Path_31" data-name="Path 31" d="M11,6.273V19a1.273,1.273,0,0,0,2.546,0V6.273a1.273,1.273,0,0,0-2.546,0Z" transform="translate(-0.816 -1.181)" fill="#595866"/>
  <path id="Path_32" data-name="Path 32" d="M15,8.273V18.457a1.273,1.273,0,0,0,2.546,0V8.273a1.273,1.273,0,0,0-2.546,0Z" transform="translate(0.276 -0.635)" fill="#595866"/>
  <path id="Path_33" data-name="Path 33" d="M19,3.273V19.822a1.273,1.273,0,0,0,2.546,0V3.273a1.273,1.273,0,0,0-2.546,0Z" transform="translate(1.368 -2)" fill="#595866"/>
</svg>
