<svg xmlns="http://www.w3.org/2000/svg" width="20" height="20.498" viewBox="0 0 20 20.498">
  <path id="alarm-clock" d="M20.666,8.237A3.84,3.84,0,0,0,22,5.571a3.629,3.629,0,0,0-1.476-2.857L20.5,2.69a3.6,3.6,0,0,0-2.9-.857,3.834,3.834,0,0,0-2.286,1.5A9.174,9.174,0,0,0,12,2.714a10.027,10.027,0,0,0-3.285.571,3.912,3.912,0,0,0-2.286-1.5,3.6,3.6,0,0,0-2.9.857L3.5,2.666A3.741,3.741,0,0,0,2,5.571,3.749,3.749,0,0,0,3.334,8.237a9.383,9.383,0,0,0-.9,4.095A9.585,9.585,0,0,0,4.81,18.641l-.048.048L3.382,20.76a.953.953,0,0,0,.262,1.309.907.907,0,0,0,.524.167.9.9,0,0,0,.786-.428l1.238-1.857a9.516,9.516,0,0,0,11.642-.024l1.262,1.881a.925.925,0,0,0,.786.428.857.857,0,0,0,.524-.167.953.953,0,0,0,.262-1.309l-1.381-2.071-.071-.071a9.6,9.6,0,0,0,2.333-6.285,9.045,9.045,0,0,0-.881-4.095ZM17.928,3.69a1.793,1.793,0,0,1,1.357.476,1.909,1.909,0,0,1,.809,1.381,1.632,1.632,0,0,1-.452,1.024,9.894,9.894,0,0,0-2.6-2.381A1.648,1.648,0,0,1,17.928,3.69ZM3.905,5.547a1.909,1.909,0,0,1,.809-1.381A1.793,1.793,0,0,1,6.072,3.69a2.029,2.029,0,0,1,.881.5,9.5,9.5,0,0,0-2.6,2.381,1.841,1.841,0,0,1-.452-1.024ZM12,20.022a7.7,7.7,0,1,1,7.666-7.714A7.681,7.681,0,0,1,12,20.022Zm3.452-5.595a.951.951,0,1,1-1.333,1.357L11.333,13a1.051,1.051,0,0,1-.286-.667V7.19a.952.952,0,0,1,1.9,0v4.738l2.5,2.5Z" transform="translate(-2 -1.738)" fill="#595866"/>
</svg>
