<svg xmlns="http://www.w3.org/2000/svg" width="21.007" height="18.383" viewBox="0 0 21.007 18.383">
  <g id="back" transform="translate(-2.857 -4)">
    <path id="Path_8" data-name="Path 8" d="M22.041,11.879H10.409l4.766-5.724a1.315,1.315,0,1,0-2.022-1.681L6.588,12.352a1.574,1.574,0,0,0-.118.2.166.166,0,0,1-.092.171,1.262,1.262,0,0,0,0,.945.166.166,0,0,0,.092.171,1.567,1.567,0,0,0,.118.2l6.565,7.878a1.315,1.315,0,1,0,2.022-1.681l-4.766-5.724H22.041a1.313,1.313,0,1,0,0-2.626Z" transform="translate(0.51 0)"/>
    <rect id="Rectangle_30" data-name="Rectangle 30" width="18.381" height="2.626" rx="1.143" transform="translate(5.483 4.002) rotate(90)"/>
  </g>
</svg>
